<?xml version="1.0" encoding="utf-8"?>
<!-- Generator: Adobe Illustrator 18.0.0, SVG Export Plug-In . SVG Version: 6.00 Build 0)  -->
<!DOCTYPE svg PUBLIC "-//W3C//DTD SVG 1.1//EN" "http://www.w3.org/Graphics/SVG/1.1/DTD/svg11.dtd">
<svg version="1.1" id="Layer_1" xmlns="http://www.w3.org/2000/svg" xmlns:xlink="http://www.w3.org/1999/xlink" x="0px" y="0px"
	 viewBox="0 0 736 296.3" enable-background="new 0 0 736 296.3" xml:space="preserve">
<g>
	<g>
		<g>
			<g>
				<path fill="#7A62AA" d="M538.7,77.6c-8.1-7.6-17.3-10.1-28.1-10.1c-13.4,0-20.8,4.2-20.8,11.3c0,7.4,6.7,11.5,21.2,12.5
					c21.4,1.4,48.7,6.2,48.7,36.4c0,20.1-16.4,37.4-48.9,37.4c-18,0-36-3-52.6-20.3l13.8-20.1c8.1,9,26.5,15.7,39.2,15.9
					c10.6,0.2,20.5-5.3,20.5-13.6c0-7.8-6.5-11.1-22.6-12c-21.4-1.6-47-9.5-47-35.3c0-26.3,27.2-35.5,48-35.5
					c17.8,0,31.1,3.5,44.3,15L538.7,77.6z"/>
				<path fill="#7A62AA" d="M734.5,146.8c-13.1,12.9-27,18-43.8,18c-33,0-60.4-19.8-60.4-60.2s27.4-60.2,60.4-60.2
					c16.1,0,28.6,4.6,41,16.8L714,79.9c-6.7-6-15-9-22.8-9c-18.9,0-32.7,13.8-32.7,33.7c0,21.7,14.8,33.2,32.3,33.2
					c9,0,18-2.5,24.9-9.5L734.5,146.8z"/>
				<path fill="#7A62AA" d="M611.3,16.4c0,21.9-33.2,21.9-33.2,0C578.1-5.5,611.3-5.5,611.3,16.4z M580.6,53.8v108.4h28.1V48
					L580.6,53.8z"/>
				<path fill="#7A62AA" d="M254.9,47.9c-14.8,0-28.1,4.6-38.3,20.8c-6.5-15.7-20.3-21.2-33.9-21.2c-10.8,0-24.2,4.2-30.2,15.7V48.8
					l-2,0.5v0l-25,5.8v106.9h27v-59.7c0-15,8.2-28.6,23.5-28.6c15.5,0,22.5,13.6,22.5,28.6v59.7h30v-59.7c0-15,9.4-28.1,24.6-28.1
					c15.2,0,21.4,12.7,21.4,27.7v60.1h29v-60.1C303.5,67.7,287.2,47.9,254.9,47.9z"/>
				<path fill="#7A62AA" d="M409.5,52.6v52.3c0,17.3-12.5,31.8-29.8,31.8c-18,0-28.2-13.1-28.2-30.4V46.8l-28,5.8v54
					c0,35.3,20.5,55.8,47.7,55.8c15.5,0,27.3-5.3,38.3-16.2v15.8h26V46.8L409.5,52.6z"/>
			</g>
		</g>
	</g>
	<path fill="#7A62AA" d="M80.5,77.6C72.4,70,63.2,67.5,52.3,67.5c-13.4,0-20.8,4.2-20.8,11.3c0,7.4,6.7,11.5,21.2,12.5
		c21.4,1.4,48.7,6.2,48.7,36.4c0,20.1-16.4,37.4-48.9,37.4c-18,0-36-3-52.6-20.3l13.8-20.1c8.1,9,26.5,15.7,39.2,15.9
		c10.6,0.2,20.5-5.3,20.5-13.6c0-7.8-6.5-11.1-22.6-12c-21.4-1.6-47-9.5-47-35.3c0-26.3,27.2-35.5,48-35.5c17.8,0,31.1,3.5,44.3,15
		L80.5,77.6z"/>
	<polygon fill="#7A62AA" points="36.7,35.5 36.7,57.4 64.8,57.4 64.8,29.8 	"/>
	<polygon fill="#7A62AA" points="36.7,157.5 36.7,179.4 64.8,179.4 64.8,151.7 	"/>
</g>
<g>
	<path fill="#333333" d="M70.9,295.4L62.2,276H15.1l-8.6,19.4H0l35.4-78.9H42l35.4,78.9H70.9z M59.9,270.4l-21.2-48l-21.2,48H59.9z"
		/>
	<path fill="#333333" d="M120.5,216.5v73.2h44.4v5.7h-50.5v-78.9H120.5z"/>
	<path fill="#333333" d="M211.2,216.5v73.2h44.4v5.7h-50.5v-78.9H211.2z"/>
	<path fill="#333333" d="M298.6,295.4v-78.9h6v78.9H298.6z"/>
	<path fill="#333333" d="M419.1,295.4l-8.7-19.4h-47.1l-8.6,19.4h-6.5l35.4-78.9h6.7l35.4,78.9H419.1z M408.1,270.4l-21.2-48
		l-21.2,48H408.1z"/>
	<path fill="#333333" d="M464.2,216.5l53.1,65.3v-65.3h6v78.9h-2.4l-53.2-65.2v65.2h-6.1v-78.9H464.2z"/>
	<path fill="#333333" d="M634.6,284.5c-7.9,7.9-18.4,11.8-28.7,11.8c-26.6,0-40.5-18.6-40.6-39.9c-0.2-21.1,13.5-40.8,40.6-40.8
		c10.4,0,20.9,3.9,28.7,11.8l-4.2,3.6c-6.8-6.8-15.7-10-24.6-10c-23,0-34.8,16.2-34.7,35.2c0.2,18.5,12,34.5,34.7,34.5
		c8.9,0,17.9-3.4,24.7-10L634.6,284.5z"/>
	<path fill="#333333" d="M686.2,252.9h46.2v5.5h-46.2v31.1H736v5.9h-55.8v-78.9h54.4v5.7h-48.5V252.9z"/>
</g>
</svg>
